<svg xmlns="http://www.w3.org/2000/svg"  viewBox="0 0 32 32" width="128px" height="128px"><path d="M 22.5 27.300781 L 18.898438 21.300781 L 19.601563 20.800781 C 21.101563 19.601563 22 17.898438 22 16 C 22 12.601563 19.398438 10 16 10 C 12.601563 10 10 12.601563 10 16 C 10 17.898438 10.898438 19.601563 12.398438 20.800781 L 13.101563 21.300781 L 9.5 27.300781 L 8.601563 26.699219 C 5.199219 24.398438 3 20.300781 3 16 C 3 8.800781 8.800781 3 16 3 C 23.199219 3 29 8.800781 29 16 C 29 20.398438 26.898438 24.300781 23.398438 26.699219 Z M 16 5 C 9.898438 5 5 9.898438 5 16 C 5 19.199219 6.5 22.398438 8.898438 24.398438 L 10.5 21.800781 C 8.898438 20.300781 8 18.199219 8 16 C 8 11.5 11.5 8 16 8 C 20.5 8 24 11.5 24 16 C 24 18.199219 23.101563 20.300781 21.5 21.800781 L 23.101563 24.398438 C 25.601563 22.300781 27 19.300781 27 16 C 27 9.898438 22.101563 5 16 5 Z M 20 16 C 20 13.800781 18.199219 12 16 12 C 13.800781 12 12 13.800781 12 16 C 12 17.699219 13 19.101563 14.5 19.699219 L 13.199219 28.699219 L 14.101563 28.898438 C 14.699219 29 15.398438 29 16 29 C 16.601563 29 17.300781 29 17.898438 28.898438 L 18.800781 28.699219 L 17.5 19.699219 C 19 19.101563 20 17.699219 20 16 Z"/></svg>